<svg xmlns="http://www.w3.org/2000/svg" viewBox="0 0 2356.68 732.29"><defs><style>.a{fill:#be1e2d;}.b{fill:#fff;}</style></defs><polygon class="a" points="440.55 309.2 440.55 341.86 378.57 341.86 378.57 309.2 313.23 309.2 313.23 439.86 378.57 439.86 378.57 407.2 440.55 407.2 440.55 439.86 505.88 439.86 505.88 309.2 440.55 309.2"/><polygon class="a" points="246.22 505.2 246.22 113.19 115.56 113.19 115.56 505.2 115.56 635.87 246.22 635.87 507.56 635.87 507.56 505.2 246.22 505.2"/><polygon class="a" points="572.89 113.19 311.56 113.19 311.56 243.86 572.89 243.86 572.89 635.87 703.56 635.87 703.56 243.86 703.56 113.19 572.89 113.19"/><path class="b" d="M914.11,622.27a147,147,0,0,1-49.77-8.72A131.73,131.73,0,0,1,820,586.76l28.85-34.55A144.42,144.42,0,0,0,880,571.86a83.36,83.36,0,0,0,35,7.29q15.23,0,23.62-5.54t8.4-15.38v-.63a19.14,19.14,0,0,0-1.75-8.4q-1.76-3.65-6.68-6.82A70.56,70.56,0,0,0,925,536a236.66,236.66,0,0,0-22.73-6.65,276.08,276.08,0,0,1-30.51-9.2,85.65,85.65,0,0,1-23.2-12.52,50.48,50.48,0,0,1-14.78-18.54q-5.25-11.1-5.25-27.58v-.64a64.34,64.34,0,0,1,5.67-27.42,62.55,62.55,0,0,1,15.9-21.08,71.64,71.64,0,0,1,24.45-13.63A98.26,98.26,0,0,1,905.87,394a132.79,132.79,0,0,1,44.86,7.29,130.14,130.14,0,0,1,37.56,20.92L962.93,459a161.79,161.79,0,0,0-29.16-16,74.7,74.7,0,0,0-28.53-5.86q-14.26,0-21.4,5.55t-7.13,13.79v.63a19.9,19.9,0,0,0,2.06,9.35c1.38,2.65,3.86,5,7.47,7.13a69.86,69.86,0,0,0,14.78,6q9.38,2.85,23.68,6.65a228.61,228.61,0,0,1,30,10A84.3,84.3,0,0,1,977,509.57a50.89,50.89,0,0,1,13.66,18.23q4.61,10.46,4.61,25v.64q0,16.49-6,29.32a60.14,60.14,0,0,1-16.69,21.56A75.17,75.17,0,0,1,947,617.67,111.12,111.12,0,0,1,914.11,622.27Z"/><path class="b" d="M1089.41,442.21h-67.52v-45h183.86v45h-67.52V619.1h-48.82Z"/><path class="b" d="M1335.72,622.58q-44.7,0-70.37-24.72T1239.67,524V397.2h48.82V522.73q0,27.27,12.68,41t35.18,13.79q22.51,0,35.19-13.31t12.68-40V397.2H1433V522.41q0,25.37-6.82,44.07t-19.49,31.22A79.8,79.8,0,0,1,1376,616.4Q1357.91,622.58,1335.72,622.58Z"/><path class="b" d="M1482.81,397.2h86.54q26,0,47.71,8.4a112.72,112.72,0,0,1,37.4,23.3,103.65,103.65,0,0,1,24.25,35,110.15,110.15,0,0,1,8.56,43.58v.64a111.26,111.26,0,0,1-8.56,43.74,103.23,103.23,0,0,1-24.25,35.19,114.73,114.73,0,0,1-37.4,23.46q-21.72,8.55-47.71,8.56h-86.54ZM1569.35,575a75.35,75.35,0,0,0,27.26-4.75,58.55,58.55,0,0,0,21.08-13.63,64.12,64.12,0,0,0,13.63-20.92,70.66,70.66,0,0,0,4.91-27v-.63a72.24,72.24,0,0,0-4.91-26.95A63.39,63.39,0,0,0,1617.69,460a60.54,60.54,0,0,0-21.08-13.79,73.3,73.3,0,0,0-27.26-4.91h-37.72V575Z"/><path class="b" d="M1732.92,397.2h48.82V619.1h-48.82Z"/><path class="b" d="M1945,622.9q-25.68,0-47.23-9a117.47,117.47,0,0,1-37.25-24.41,109.23,109.23,0,0,1-24.41-36.14,113.9,113.9,0,0,1-8.72-44.54v-.63a112.06,112.06,0,0,1,8.88-44.54,113.49,113.49,0,0,1,62-61.18,122.08,122.08,0,0,1,47.4-9q25.66,0,47.23,9a117.41,117.41,0,0,1,37.25,24.41A109.38,109.38,0,0,1,2054.52,463a113.85,113.85,0,0,1,8.71,44.53v.64a112.23,112.23,0,0,1-8.87,44.54,113.55,113.55,0,0,1-62,61.18A122.17,122.17,0,0,1,1945,622.9Zm.64-45a66.75,66.75,0,0,0,26.94-5.39,61.56,61.56,0,0,0,21.08-14.9,70.3,70.3,0,0,0,13.63-22,72.61,72.61,0,0,0,4.92-26.79v-.63a73.88,73.88,0,0,0-4.92-26.95A66.54,66.54,0,0,0,1971.94,444a65.24,65.24,0,0,0-27-5.54,66.39,66.39,0,0,0-27.1,5.39A62,62,0,0,0,1897,458.69a70.1,70.1,0,0,0-13.63,22,72.56,72.56,0,0,0-4.92,26.78v.64a73.79,73.79,0,0,0,4.92,26.94,66.88,66.88,0,0,0,35.18,37.25A64.74,64.74,0,0,0,1945.63,577.89Z"/><path class="b" d="M2185.91,622.27a147,147,0,0,1-49.77-8.72,131.53,131.53,0,0,1-44.38-26.79l28.85-34.55a144.42,144.42,0,0,0,31.22,19.65,83.36,83.36,0,0,0,35,7.29q15.21,0,23.62-5.54t8.4-15.38v-.63a19.28,19.28,0,0,0-1.75-8.4q-1.76-3.65-6.68-6.82a70.56,70.56,0,0,0-13.66-6.34q-8.74-3.16-22.73-6.65a276.94,276.94,0,0,1-30.52-9.2,86,86,0,0,1-23.2-12.52,50.58,50.58,0,0,1-14.78-18.54q-5.23-11.1-5.24-27.58v-.64a64.34,64.34,0,0,1,5.67-27.42,62.29,62.29,0,0,1,15.9-21.08,71.55,71.55,0,0,1,24.45-13.63,98.21,98.21,0,0,1,31.33-4.75,132.69,132.69,0,0,1,44.85,7.29,130.33,130.33,0,0,1,37.57,20.92L2234.73,459a161.86,161.86,0,0,0-29.17-16,74.7,74.7,0,0,0-28.53-5.86q-14.27,0-21.39,5.55t-7.14,13.79v.63a19.9,19.9,0,0,0,2.07,9.35c1.38,2.65,3.86,5,7.47,7.13a69.86,69.86,0,0,0,14.78,6q9.38,2.85,23.68,6.65a227.94,227.94,0,0,1,30,10,84,84,0,0,1,22.25,13.31,50.8,50.8,0,0,1,13.67,18.23q4.61,10.46,4.61,25v.64q0,16.49-6,29.32a60.25,60.25,0,0,1-16.69,21.56,75.35,75.35,0,0,1-25.56,13.31A111.12,111.12,0,0,1,2185.91,622.27Z"/><path class="a" d="M827.43,129.17H866v69.38h71.14V129.17h38.57V304.51H937.14V234.12H866v70.39H827.43Z"/><path class="a" d="M1019.55,129.17h38.57V304.51h-38.57Z"/><path class="a" d="M1102,129.17h41.58l46.09,74.14,46.09-74.14h41.58V304.51h-38.08V190l-49.34,74.9h-1L1140,190.78V304.51H1102Z"/><path class="a" d="M1319.38,129.17H1361l46.09,74.14,46.09-74.14h41.58V304.51h-38.08V190l-49.34,74.9h-1l-48.85-74.15V304.51h-38.07Z"/><path class="a" d="M1536.8,129.17h38.57V269.69h87.42v34.82h-126Z"/><path class="a" d="M1693.6,129.17h38.57V304.51H1693.6Z"/><path class="a" d="M1838.63,307a116.2,116.2,0,0,1-39.33-6.89A104.11,104.11,0,0,1,1764.24,279L1787,251.65a114.3,114.3,0,0,0,24.67,15.53,65.84,65.84,0,0,0,27.68,5.76q12,0,18.66-4.38a13.79,13.79,0,0,0,6.64-12.15v-.5a15.21,15.21,0,0,0-1.38-6.64,14,14,0,0,0-5.28-5.38,55.16,55.16,0,0,0-10.79-5q-6.92-2.5-18-5.26a217,217,0,0,1-24.11-7.27,67.34,67.34,0,0,1-18.34-9.89,40.14,40.14,0,0,1-11.68-14.65Q1771,193,1771,180v-.5a50.77,50.77,0,0,1,4.48-21.66A49.29,49.29,0,0,1,1788,141.19a56.59,56.59,0,0,1,19.32-10.77,77.53,77.53,0,0,1,24.76-3.76,104.88,104.88,0,0,1,35.44,5.76A103.11,103.11,0,0,1,1897.24,149l-20,29.06a127.87,127.87,0,0,0-23-12.65,58.86,58.86,0,0,0-22.54-4.63q-11.28,0-16.91,4.38t-5.64,10.9v.5a15.77,15.77,0,0,0,1.64,7.39,14.7,14.7,0,0,0,5.9,5.63,55.3,55.3,0,0,0,11.68,4.76q7.41,2.25,18.71,5.26a180.08,180.08,0,0,1,23.73,7.89A66.41,66.41,0,0,1,1888.31,218a40.27,40.27,0,0,1,10.8,14.41q3.65,8.26,3.64,19.78v.5a54.25,54.25,0,0,1-4.72,23.17,47.58,47.58,0,0,1-13.19,17,59.57,59.57,0,0,1-20.2,10.52A87.72,87.72,0,0,1,1838.63,307Z"/><path class="a" d="M2018.48,307.51a90.85,90.85,0,0,1-35.82-7,88.22,88.22,0,0,1-28.56-19.16,87.3,87.3,0,0,1-18.78-28.69,92.32,92.32,0,0,1-6.77-35.31v-.5a91.11,91.11,0,0,1,25.55-64,87.1,87.1,0,0,1,28.81-19.54,93.77,93.77,0,0,1,37.07-7.14,116.46,116.46,0,0,1,22.42,2,94.32,94.32,0,0,1,18.41,5.51,80.63,80.63,0,0,1,15.28,8.52,103.69,103.69,0,0,1,13,11l-24.55,28.31A92.89,92.89,0,0,0,2043.65,167a53.23,53.23,0,0,0-23.92-5.26,48.81,48.81,0,0,0-20.41,4.26,48.27,48.27,0,0,0-16.16,11.77,54.71,54.71,0,0,0-10.52,17.41,59.23,59.23,0,0,0-3.76,21.16v.51a60.26,60.26,0,0,0,3.76,21.29A55.75,55.75,0,0,0,1983,255.66a48.22,48.22,0,0,0,36.7,16.28q15,0,25.43-5.51a98.74,98.74,0,0,0,20.66-15l24.55,24.8a126.83,126.83,0,0,1-14,13,83.56,83.56,0,0,1-15.9,9.89,81.94,81.94,0,0,1-18.92,6.26A113.85,113.85,0,0,1,2018.48,307.51Z"/><path class="a" d="M2121.18,129.17h38.57v69.38h71.14V129.17h38.57V304.51h-38.57V234.12h-71.14v70.39h-38.57Z"/></svg>